{"glyphs":{":":{"x_min":0,"x_max":343,"ha":343,"o":"m 89 451 q 89 484 113 508 q 137 532 171 532 q 206 532 229 509 q 253 485 253 451 q 253 416 229 392 q 205 368 171 368 q 137 368 113 392 q 89 417 89 451 z m 89 76 q 89 109 113 134 q 137 158 171 158 q 205 158 229 134 q 253 110 253 76 q 253 41 229 17 q 205 -7 171 -7 q 137 -7 113 17 q 89 42 89 76 z"},"$":{"x_min":0,"x_max":616,"ha":616,"o":"m 272 458 l 272 648 q 229 646 205 622 q 181 597 181 556 q 181 523 204 499 q 226 475 272 458 z m 337 106 q 381 109 407 136 q 434 163 434 204 q 434 245 411 271 q 388 297 337 314 z m 338 22 l 338 -27 q 338 -38 341 -53 q 344 -69 350 -90 l 262 -90 q 268 -72 270 -56 q 273 -40 273 -27 l 273 21 q 218 23 173 30 q 127 36 90 47 l 101 193 q 125 155 169 132 q 212 109 273 103 l 273 338 q 167 376 119 423 q 72 471 72 539 q 72 621 125 672 q 179 723 273 730 l 273 737 q 273 750 270 764 q 268 777 262 791 l 351 791 q 346 779 343 765 q 340 751 338 734 q 372 734 409 731 q 446 728 486 721 l 471 587 q 438 620 406 635 q 375 651 341 651 l 338 651 l 338 432 q 444 394 493 342 q 542 290 542 216 q 542 131 491 83 q 439 34 338 22 z"},"?":{"x_min":0,"x_max":549,"ha":549,"o":"m 173 211 q 165 243 161 260 q 158 277 158 289 q 158 314 166 327 q 174 340 205 354 q 211 357 227 363 q 280 386 310 408 q 333 426 345 454 q 357 482 357 522 q 357 584 318 624 q 279 663 217 663 q 183 663 153 649 q 122 635 94 607 l 98 746 q 138 755 170 760 q 202 764 226 764 q 334 764 407 693 q 480 622 480 518 q 480 440 432 386 q 385 333 270 286 q 265 284 255 280 q 189 255 173 211 z m 102 76 q 102 109 126 134 q 150 158 184 158 q 218 158 242 134 q 266 110 266 76 q 266 41 242 17 q 218 -7 184 -7 q 150 -7 126 17 q 102 42 102 76 z"},"<":{"x_min":0,"x_max":833,"ha":833,"o":"m 704 574 l 704 484 l 248 298 l 704 112 l 704 23 l 129 259 l 129 337 z"},"'":{"x_min":0,"x_max":163,"ha":163,"o":"m 42 701 l 122 701 l 122 429 l 42 429 z"},"=":{"x_min":0,"x_max":833,"ha":833,"o":"m 124 238 l 709 238 l 709 157 l 124 157 z m 124 440 l 709 440 l 709 358 l 124 358 z"},"a":{"x_min":0,"x_max":456,"ha":456,"o":"m 283 84 l 283 233 l 150 233 q 141 211 136 191 q 132 172 132 154 q 132 117 156 98 q 180 79 227 79 q 238 79 251 80 q 264 81 283 84 z m 73 416 l 99 512 q 132 522 161 527 q 191 532 219 532 q 298 532 340 491 q 382 450 382 371 l 382 132 q 382 93 389 61 q 396 28 410 0 l 283 0 l 283 75 q 255 54 234 37 q 214 20 197 4 q 191 2 184 1 q 177 0 163 0 q 104 0 63 37 q 23 73 23 127 q 23 182 66 220 q 109 258 283 328 q 283 331 284 337 q 284 344 284 346 q 284 399 259 426 q 234 453 184 453 q 159 453 132 444 q 104 435 73 416 z"},"L":{"x_min":0,"x_max":481,"ha":481,"o":"m 241 757 q 224 714 216 666 q 208 618 208 560 l 208 72 q 297 80 369 96 q 441 113 499 140 q 480 99 465 65 q 450 30 439 0 l 60 0 q 77 43 85 91 q 93 139 93 197 l 93 560 q 93 618 85 666 q 77 714 60 757 z"},"3":{"x_min":0,"x_max":616,"ha":616,"o":"m 361 439 q 434 422 476 368 q 518 313 518 236 q 518 125 445 59 q 372 -8 250 -8 q 191 -8 139 8 q 87 23 44 55 l 117 191 q 144 135 181 109 q 219 82 272 82 q 332 82 369 124 q 407 166 407 232 q 407 292 364 328 q 320 363 245 363 q 234 363 223 362 q 211 361 200 359 l 375 669 q 209 668 140 656 q 71 644 50 615 l 50 757 l 541 757 z"},";":{"x_min":0,"x_max":343,"ha":343,"o":"m 99 451 q 99 484 123 508 q 147 532 181 532 q 215 532 239 509 q 263 485 263 451 q 263 416 239 392 q 215 368 181 368 q 147 368 123 392 q 99 417 99 451 z m 21 -141 q 63 -64 84 7 q 105 78 105 143 q 105 157 104 175 q 103 192 100 213 l 250 213 q 244 132 205 43 q 166 -45 94 -141 z"},"J":{"x_min":0,"x_max":366,"ha":366,"o":"m 307 757 q 291 715 283 668 q 275 620 275 560 l 275 143 q 275 42 263 -5 q 251 -52 223 -87 q 196 -120 157 -139 q 119 -157 77 -157 q 69 -157 65 -157 q 61 -157 57 -156 l -15 -147 q 32 -124 62 -100 q 93 -77 112 -50 q 137 -14 148 44 q 159 103 159 197 l 159 661 l 145 661 q 104 661 66 657 q 29 652 -5 644 l 27 757 z"},"V":{"x_min":0,"x_max":690,"ha":690,"o":"m 293 0 l 96 546 q 71 614 42 665 q 13 716 -23 757 l 184 757 q 183 746 182 736 q 181 726 181 717 q 181 686 190 646 q 198 607 216 558 l 350 180 l 519 624 q 527 645 531 665 q 535 686 535 705 q 535 718 533 731 q 530 744 525 757 l 716 757 q 684 715 653 656 q 622 598 593 523 l 388 0 z"},"\"":{"x_min":0,"x_max":314,"ha":314,"o":"m 193 701 l 273 701 l 273 429 l 193 429 z m 42 701 l 122 701 l 122 429 l 42 429 z"},"7":{"x_min":0,"x_max":616,"ha":616,"o":"m 415 657 l 248 657 q 178 657 137 645 q 96 632 67 603 l 67 757 l 569 757 l 345 205 q 326 157 315 114 q 304 70 304 41 q 304 32 306 22 q 308 12 311 0 l 119 0 q 148 37 175 87 q 202 136 228 199 z"},"S":{"x_min":0,"x_max":521,"ha":521,"o":"m 92 187 q 118 138 155 113 q 193 88 241 88 q 289 88 318 115 q 348 142 348 185 q 348 255 228 324 q 212 333 204 338 q 123 386 92 430 q 62 474 62 538 q 62 633 128 699 q 195 764 292 764 q 323 764 356 758 q 390 751 426 738 l 421 606 q 397 636 365 651 q 333 667 294 667 q 244 667 213 638 q 182 609 182 562 q 182 524 205 496 q 227 467 304 422 q 310 419 320 413 q 392 371 424 340 q 449 315 462 282 q 475 249 475 208 q 475 107 406 50 q 336 -7 212 -7 q 182 -7 151 -1 q 121 4 88 15 z"},"}":{"x_min":0,"x_max":500,"ha":500,"o":"m 74 721 l 96 721 q 152 721 184 716 q 215 710 237 697 q 265 681 276 650 q 287 620 287 550 l 287 429 q 287 359 312 330 q 338 302 400 302 q 403 302 410 302 q 417 303 421 303 l 421 216 q 417 216 410 216 q 403 217 400 217 q 338 217 313 188 q 287 159 287 89 l 287 -32 q 287 -102 276 -132 q 265 -162 237 -178 q 216 -191 184 -197 q 152 -202 96 -202 l 74 -202 l 74 -116 q 78 -116 85 -117 q 93 -117 96 -117 q 149 -117 168 -97 q 187 -76 187 -11 l 187 106 q 187 181 209 213 q 231 245 287 259 q 231 272 209 304 q 187 336 187 412 l 187 530 q 187 594 168 615 q 150 635 97 635 q 94 635 86 634 q 78 634 74 634 z"},"Z":{"x_min":0,"x_max":593,"ha":593,"o":"m 23 0 l 365 671 q 359 671 346 671 q 334 672 328 672 q 232 672 158 653 q 83 634 26 595 l 85 757 l 537 757 l 206 93 q 216 92 227 92 q 238 92 259 92 q 364 92 440 109 q 516 125 575 161 l 514 0 z"},"x":{"x_min":0,"x_max":477,"ha":477,"o":"m 192 263 l 86 430 q 67 461 48 484 q 30 507 10 525 l 184 525 q 182 516 181 507 q 180 499 180 491 q 180 479 184 468 q 187 456 194 444 l 251 349 l 299 423 q 311 442 318 461 q 324 480 324 498 q 324 503 323 510 q 322 517 321 525 l 478 525 q 458 506 437 480 q 416 454 391 416 l 300 276 l 403 107 q 424 74 445 47 q 466 21 489 0 l 318 0 q 319 5 320 10 q 321 16 321 22 q 321 36 316 51 q 311 66 301 83 l 237 192 l 173 90 q 166 79 162 67 q 158 55 158 43 q 158 36 159 26 q 160 17 163 0 l -2 0 q 24 28 46 55 q 68 82 85 107 z"},")":{"x_min":0,"x_max":394,"ha":394,"o":"m -17 -126 q 36 -117 67 -101 q 99 -85 117 -59 q 145 -19 158 71 q 171 161 171 307 q 171 453 158 542 q 145 631 117 672 q 99 698 67 714 q 36 730 -17 739 q 9 752 34 758 q 58 764 83 764 q 194 764 239 665 q 284 565 284 307 q 284 48 239 -51 q 194 -151 83 -151 q 58 -151 34 -145 q 9 -139 -17 -126 z"},"&":{"x_min":0,"x_max":847,"ha":847,"o":"m 270 401 q 311 417 328 438 q 346 459 346 492 q 346 523 327 542 q 307 562 276 562 q 242 562 219 540 q 197 518 197 486 q 197 454 217 430 q 237 407 270 401 z m 507 171 q 443 228 375 267 q 308 306 235 328 q 189 299 166 266 q 143 233 143 196 q 143 144 184 115 q 225 85 296 85 q 364 85 417 107 q 471 128 507 171 z m 573 109 q 519 52 449 24 q 380 -5 296 -5 q 182 -5 111 49 q 40 103 40 188 q 40 239 69 283 q 99 327 159 367 q 133 387 120 415 q 107 444 107 481 q 107 549 153 593 q 199 637 270 637 q 345 637 390 598 q 435 559 435 495 q 435 457 419 428 q 403 400 367 375 q 407 363 456 332 q 504 301 556 255 q 578 303 590 361 q 601 419 601 484 q 601 492 600 517 q 599 527 599 532 q 567 531 540 528 q 512 525 489 519 l 489 624 l 793 624 l 793 519 q 769 525 741 528 q 714 531 684 532 l 684 506 q 684 419 670 344 q 656 268 628 202 q 686 149 743 114 q 800 79 857 60 l 756 -7 q 715 -5 580 104 z"},"_":{"x_min":0,"x_max":500,"ha":500,"o":"m 0 -152 l 500 -152 l 500 -236 l 0 -236 z"},"v":{"x_min":0,"x_max":477,"ha":477,"o":"m 189 0 l 65 394 q 51 440 35 470 q 20 501 0 525 l 164 525 q 160 510 157 497 q 155 483 155 471 q 155 459 157 445 q 160 431 167 409 l 255 121 l 344 416 q 350 436 353 455 q 356 474 356 494 q 356 503 354 522 q 354 524 354 525 l 481 525 q 459 491 443 454 q 426 417 414 377 l 301 0 z"},"O":{"x_min":0,"x_max":850,"ha":850,"o":"m 437 84 q 544 84 613 159 q 682 235 682 354 q 682 409 669 458 q 655 508 630 548 q 591 609 536 642 q 480 674 414 674 q 307 674 239 596 q 170 519 170 397 q 170 341 185 291 q 201 240 231 195 q 267 142 321 113 q 375 84 437 84 z m 808 383 q 808 295 777 221 q 745 146 685 92 q 631 43 565 18 q 499 -7 424 -7 q 354 -7 291 15 q 228 38 174 81 q 109 134 74 211 q 40 289 40 382 q 40 454 62 515 q 84 577 128 628 q 185 693 264 729 q 343 764 434 764 q 509 764 574 739 q 639 713 692 664 q 749 609 778 538 q 808 466 808 383 z"},"(":{"x_min":0,"x_max":394,"ha":394,"o":"m 411 739 q 358 730 326 714 q 294 698 276 672 q 248 632 235 544 q 222 456 222 307 q 222 158 235 70 q 248 -19 276 -59 q 294 -85 326 -101 q 358 -117 411 -126 q 383 -139 358 -145 q 333 -151 310 -151 q 199 -151 154 -51 q 109 48 109 307 q 109 565 154 665 q 199 764 310 764 q 333 764 358 758 q 383 751 411 739 z"},"C":{"x_min":0,"x_max":734,"ha":734,"o":"m 676 48 q 607 21 543 7 q 479 -7 421 -7 q 351 -7 290 13 q 229 33 178 73 q 111 125 76 201 q 40 276 40 367 q 40 459 76 538 q 112 616 181 671 q 240 718 314 742 q 389 766 478 766 q 520 766 565 760 q 611 753 661 741 l 660 608 q 616 640 563 656 q 509 673 450 673 q 324 673 250 591 q 175 510 175 371 q 175 241 248 164 q 321 87 443 87 q 504 87 562 109 q 620 131 679 176 z"},"W":{"x_min":0,"x_max":947,"ha":947,"o":"m 462 449 l 313 0 l 230 0 l 82 542 q 57 632 39 679 q 21 727 0 757 l 193 757 q 187 737 183 718 q 180 699 180 681 q 180 660 183 636 q 187 612 193 583 l 284 202 l 470 766 l 656 202 l 750 555 q 762 600 767 629 q 772 658 772 682 q 772 697 770 715 q 767 732 762 757 l 943 757 q 903 687 866 552 q 863 541 861 535 l 712 0 l 614 0 z"},"A":{"x_min":0,"x_max":715,"ha":715,"o":"m 257 322 l 447 322 l 356 537 z m 216 234 l 168 134 q 152 101 145 73 q 137 46 137 22 q 137 18 137 13 q 138 8 139 0 l -41 0 q -12 37 16 83 q 44 128 72 185 l 364 773 l 647 163 q 663 129 688 89 q 713 48 750 0 l 556 0 q 558 10 558 19 q 559 28 559 35 q 559 52 555 69 q 551 85 538 115 l 487 234 z"},"f":{"x_min":0,"x_max":301,"ha":301,"o":"m 189 132 q 189 93 196 61 q 203 28 217 0 l 57 0 q 71 28 78 61 q 85 94 85 132 l 85 451 l 33 451 l 85 525 q 84 531 84 538 q 84 545 84 558 q 84 654 131 706 q 178 758 265 758 q 285 758 307 754 q 329 750 354 743 l 337 633 q 321 659 302 671 q 283 683 258 683 q 221 683 205 655 q 189 627 189 562 l 189 516 l 308 516 l 308 451 l 189 451 z"},"Q":{"x_min":0,"x_max":877,"ha":877,"o":"m 451 84 q 564 84 637 160 q 710 236 710 354 q 710 410 696 459 q 682 509 656 548 q 616 609 557 641 q 498 674 427 674 q 314 674 242 596 q 170 519 170 397 q 170 340 186 290 q 202 239 234 195 q 272 142 329 113 q 385 84 451 84 z m 653 54 q 697 -16 746 -68 q 794 -120 846 -152 l 780 -164 q 775 -165 770 -166 q 764 -166 753 -166 q 698 -166 637 -126 q 575 -85 504 -3 q 487 -5 469 -6 q 452 -7 435 -7 q 387 -7 343 2 q 298 12 265 29 q 151 87 95 174 q 40 261 40 382 q 40 454 63 516 q 86 578 131 628 q 190 694 272 729 q 353 764 448 764 q 527 764 595 739 q 663 713 717 664 q 775 610 806 538 q 836 467 836 382 q 836 275 788 190 q 741 105 653 54 z"},"w":{"x_min":0,"x_max":718,"ha":718,"o":"m 463 0 l 363 368 l 268 0 l 166 0 l 66 375 q 53 426 35 465 q 18 504 0 525 l 168 525 q 162 504 159 489 q 156 474 156 462 q 156 452 157 440 q 158 429 161 416 l 226 130 l 327 525 l 413 525 l 518 138 l 583 397 q 588 419 591 438 q 594 457 594 471 q 594 483 591 497 q 587 510 580 525 l 722 525 q 702 499 685 458 q 667 418 654 366 l 562 0 z"},"-":{"x_min":0,"x_max":373,"ha":373,"o":"m 259 317 q 280 317 298 320 q 316 323 333 330 l 333 207 q 316 214 298 217 q 280 220 259 220 l 113 220 q 92 220 73 217 q 55 213 39 207 l 39 330 q 55 324 73 320 q 92 317 113 317 z"},"E":{"x_min":0,"x_max":530,"ha":530,"o":"m 60 0 q 77 43 85 91 q 93 139 93 197 l 93 560 q 93 618 85 666 q 77 714 60 757 l 474 757 l 415 635 q 379 658 330 670 q 281 681 217 681 l 208 681 l 208 420 l 443 420 l 374 310 q 346 325 305 334 q 265 343 208 347 l 208 72 q 213 72 223 71 q 233 71 238 71 q 310 71 377 84 q 445 98 512 125 l 455 0 z"},"s":{"x_min":0,"x_max":424,"ha":424,"o":"m 50 11 l 57 154 q 86 107 122 83 q 158 58 196 58 q 227 58 247 76 q 266 95 266 124 q 266 168 190 213 q 172 224 162 230 q 111 262 87 297 q 64 332 64 376 q 64 446 119 490 q 173 533 262 533 q 288 533 314 528 q 339 522 367 512 l 366 411 q 340 438 312 450 q 285 463 255 463 q 220 463 200 445 q 179 426 179 395 q 179 350 257 306 q 271 298 278 294 q 333 262 357 228 q 381 193 381 147 q 381 76 325 34 q 269 -8 173 -8 q 146 -8 115 -3 q 85 1 50 11 z"},">":{"x_min":0,"x_max":833,"ha":833,"o":"m 129 574 l 704 337 l 704 259 l 129 23 l 129 112 l 585 298 l 129 484 z"},"l":{"x_min":0,"x_max":259,"ha":259,"o":"m 206 757 q 194 717 188 667 q 182 617 182 557 l 182 132 q 182 92 189 60 q 195 27 209 0 l 50 0 q 64 28 71 61 q 78 94 78 132 l 78 592 q 78 630 71 663 q 64 696 50 724 q 86 731 125 740 q 164 748 206 757 z"},"8":{"x_min":0,"x_max":616,"ha":616,"o":"m 309 98 q 365 98 400 132 q 435 166 435 219 q 435 272 399 305 q 363 338 304 338 q 250 338 215 305 q 181 272 181 221 q 181 169 218 134 q 254 98 309 98 z m 311 434 q 360 434 390 466 q 420 498 420 549 q 420 604 391 635 q 362 666 311 666 q 258 666 225 634 q 191 601 191 551 q 191 500 225 467 q 260 434 311 434 z m 171 402 q 128 433 108 470 q 88 507 88 554 q 88 644 151 704 q 215 764 309 764 q 402 764 462 707 q 522 649 522 561 q 522 510 500 469 q 479 428 438 403 q 492 377 519 332 q 545 287 545 219 q 545 122 476 57 q 407 -7 302 -7 q 199 -7 135 54 q 70 115 70 211 q 70 273 95 321 q 121 369 171 402 z"},"\\":{"x_min":0,"x_max":315,"ha":315,"o":"m 237 19 l 34 639 q 22 674 8 705 q -7 736 -26 764 l 101 764 q 101 761 100 757 q 100 753 100 745 q 100 726 104 703 q 108 681 118 652 l 321 32 q 332 -2 347 -33 q 362 -64 381 -93 l 253 -93 q 253 -89 254 -85 q 254 -81 254 -72 q 254 -52 250 -29 q 246 -7 237 19 z"},"e":{"x_min":0,"x_max":484,"ha":484,"o":"m 155 312 l 365 312 l 365 321 q 365 393 340 429 q 315 465 266 465 q 215 465 187 427 q 160 389 155 312 z m 156 248 q 156 169 188 126 q 221 83 281 83 q 308 83 344 93 q 379 103 427 124 l 377 14 q 345 3 315 -2 q 285 -7 257 -7 q 153 -7 98 62 q 43 131 43 262 q 43 386 101 459 q 159 532 256 532 q 345 532 391 471 q 437 410 437 291 q 437 274 437 265 q 437 256 436 248 z"},"b":{"x_min":0,"x_max":546,"ha":546,"o":"m 181 87 q 200 80 216 77 q 231 74 247 74 q 320 74 362 125 q 404 175 404 264 q 404 344 367 392 q 330 440 270 440 q 248 440 226 432 q 204 423 181 406 z m 47 0 q 61 28 68 61 q 75 94 75 132 l 75 592 q 75 630 68 663 q 61 696 47 724 l 62 727 q 153 746 204 757 q 192 726 187 675 q 181 625 181 557 l 181 426 q 199 445 217 466 q 234 486 254 510 q 270 518 288 522 q 306 526 325 526 q 408 526 458 467 q 509 408 509 310 q 509 241 484 181 q 459 121 414 80 q 368 38 311 19 q 254 0 169 0 z"},"%":{"x_min":0,"x_max":921,"ha":921,"o":"m 703 764 q 685 743 669 719 q 654 696 642 671 l 354 80 q 343 58 336 36 q 329 14 325 -7 l 218 -7 q 235 13 250 36 q 266 60 279 86 l 567 677 q 577 697 584 719 q 591 741 595 764 z m 618 212 q 618 152 646 112 q 673 71 711 71 q 750 71 774 109 q 798 147 798 212 q 798 279 772 319 q 746 360 704 360 q 666 360 642 319 q 618 278 618 212 z m 700 436 q 784 434 835 374 q 886 314 886 217 q 886 117 834 54 q 782 -8 701 -8 q 628 -8 579 53 q 530 114 530 209 q 530 302 575 363 q 621 423 700 436 z m 122 539 q 122 479 149 438 q 176 398 214 398 q 254 398 278 436 q 302 474 302 539 q 302 606 276 646 q 250 687 208 687 q 170 687 146 646 q 122 605 122 539 z m 204 765 q 288 763 339 703 q 390 643 390 546 q 390 446 339 384 q 287 321 208 321 q 132 321 83 382 q 34 443 34 539 q 34 631 80 692 q 125 752 204 765 z"},"m":{"x_min":0,"x_max":803,"ha":803,"o":"m 352 349 q 352 398 331 425 q 310 451 270 451 q 245 451 224 439 q 203 428 183 403 l 183 131 q 183 93 190 61 q 197 28 211 0 l 51 0 q 65 28 72 61 q 79 93 79 131 l 79 392 q 79 428 72 461 q 65 494 51 525 l 183 525 l 183 427 q 217 488 248 510 q 279 533 324 533 q 372 533 404 506 q 436 479 451 426 q 485 487 517 510 q 549 533 596 533 q 660 533 694 492 q 729 452 729 377 l 729 131 q 729 93 736 61 q 743 28 757 0 l 597 0 q 611 28 618 61 q 625 93 625 131 l 625 349 q 625 398 604 425 q 583 451 544 451 q 519 451 498 439 q 476 428 456 403 l 456 131 q 456 93 463 61 q 470 28 484 0 l 324 0 q 338 28 345 61 q 352 93 352 131 z"},"#":{"x_min":0,"x_max":769,"ha":769,"o":"m 346 416 l 302 292 l 427 292 l 471 416 z m 359 713 l 452 713 l 377 500 l 499 500 l 575 713 l 668 713 l 593 500 l 735 500 l 706 416 l 563 416 l 519 293 l 670 293 l 640 209 l 490 209 l 414 -3 l 321 -3 l 397 209 l 274 209 l 197 -3 l 104 -3 l 180 209 l 34 209 l 64 293 l 209 293 l 253 416 l 99 416 l 129 500 l 283 500 z"},",":{"x_min":0,"x_max":308,"ha":308,"o":"m 4 -141 q 46 -64 67 7 q 88 78 88 143 q 88 157 87 174 q 85 190 83 213 l 234 213 q 228 132 189 43 q 150 -45 78 -141 z"},"n":{"x_min":0,"x_max":546,"ha":546,"o":"m 183 419 l 183 132 q 183 93 190 61 q 197 28 211 0 l 51 0 q 65 28 72 61 q 79 94 79 132 l 79 394 q 79 432 72 464 q 65 497 51 525 l 183 525 l 183 439 q 199 452 217 469 q 235 487 258 512 q 275 522 293 527 q 312 532 334 532 q 365 532 395 520 q 424 507 442 487 q 458 469 465 448 q 472 428 472 395 l 472 362 l 472 132 q 472 93 479 61 q 486 28 500 0 l 340 0 q 354 28 361 61 q 368 94 368 132 l 368 359 q 368 403 344 424 q 320 446 271 446 q 250 446 228 439 q 207 433 183 419 z"},"h":{"x_min":0,"x_max":543,"ha":543,"o":"m 179 419 l 179 132 q 179 93 186 61 q 193 28 207 0 l 47 0 q 61 28 68 61 q 75 94 75 132 l 75 592 q 75 630 68 663 q 61 696 47 724 l 62 727 q 153 746 204 757 q 191 716 185 666 q 179 615 179 557 l 179 439 q 196 453 216 472 q 235 490 255 512 q 272 522 290 527 q 309 532 331 532 q 362 532 391 520 q 419 508 438 487 q 455 468 462 447 q 469 426 469 391 l 469 362 l 469 132 q 469 93 476 61 q 483 28 497 0 l 337 0 q 351 28 358 61 q 365 94 365 132 l 365 359 q 365 403 341 424 q 317 446 268 446 q 247 446 225 439 q 203 433 179 419 z"},"z":{"x_min":0,"x_max":428,"ha":428,"o":"m 27 0 l 240 455 l 237 455 q 204 457 189 457 q 140 457 104 449 q 68 441 39 425 l 58 525 l 388 525 l 177 74 q 186 73 196 72 q 206 72 225 72 q 274 72 314 83 q 355 93 389 115 l 359 0 z"},"B":{"x_min":0,"x_max":551,"ha":551,"o":"m 208 388 l 208 69 q 213 68 218 68 q 223 68 233 68 q 301 68 343 108 q 385 148 385 212 q 385 277 335 327 q 286 376 208 388 z m 208 685 l 208 408 q 276 418 315 459 q 355 500 355 560 q 355 614 314 650 q 272 685 208 685 z m 60 0 q 77 43 85 91 q 93 139 93 197 l 93 560 q 93 618 85 666 q 77 714 60 757 l 187 757 q 257 757 304 749 q 351 741 379 725 q 428 697 454 655 q 481 614 481 565 q 481 512 453 470 q 425 428 373 402 q 443 363 478 314 q 513 266 513 208 q 513 112 434 56 q 354 0 216 0 z"},"K":{"x_min":0,"x_max":664,"ha":664,"o":"m 241 757 q 224 714 216 666 q 208 618 208 560 l 208 426 l 412 672 q 430 694 439 713 q 448 732 448 749 l 448 757 l 651 757 q 611 728 578 698 q 544 667 518 635 l 338 420 l 554 143 q 596 89 626 57 q 656 24 684 0 l 481 0 l 481 8 q 481 33 469 61 q 458 89 435 117 l 208 404 l 208 197 q 208 139 216 91 q 224 43 241 0 l 60 0 q 77 43 85 91 q 93 139 93 197 l 93 560 q 93 618 85 666 q 77 714 60 757 z"},"R":{"x_min":0,"x_max":608,"ha":608,"o":"m 208 197 q 208 139 216 91 q 224 43 241 0 l 60 0 q 77 43 85 91 q 93 139 93 197 l 93 560 q 93 618 85 666 q 77 714 60 757 l 186 757 q 349 757 428 702 q 507 647 507 536 q 507 470 468 421 q 428 373 353 347 q 410 253 476 167 q 542 80 618 0 l 506 0 q 479 0 398 94 q 317 188 208 349 z m 208 686 l 208 375 q 292 386 339 429 q 386 472 386 537 q 386 605 338 645 q 291 685 208 686 z"},"T":{"x_min":0,"x_max":588,"ha":588,"o":"m 235 674 q 155 671 98 660 q 41 649 -3 628 l 31 757 l 603 757 l 554 630 q 517 652 467 663 q 417 674 350 674 l 350 197 q 350 139 358 91 q 366 43 383 0 l 202 0 q 219 43 227 91 q 235 139 235 197 z"},"P":{"x_min":0,"x_max":558,"ha":558,"o":"m 205 757 q 272 757 322 750 q 372 743 398 729 q 459 697 490 649 q 520 601 520 533 q 520 428 457 369 q 394 310 281 310 q 264 310 246 312 q 228 313 208 316 l 208 197 q 208 139 216 91 q 224 43 241 0 l 60 0 q 77 43 85 91 q 93 139 93 197 l 93 560 q 93 618 85 666 q 77 714 60 757 z m 208 348 q 296 351 343 394 q 389 437 389 516 q 389 604 348 645 q 306 686 218 686 l 208 686 z"},"|":{"x_min":0,"x_max":500,"ha":500,"o":"m 207 764 l 294 764 l 294 -236 l 207 -236 z"},"t":{"x_min":0,"x_max":338,"ha":338,"o":"m 184 451 l 184 187 q 184 124 198 103 q 211 82 249 82 q 270 82 295 88 q 319 94 347 106 l 305 16 q 279 4 251 -2 q 222 -8 190 -8 q 128 -8 104 24 q 80 55 80 167 l 80 451 l 13 451 q 49 491 90 539 q 131 588 184 653 l 184 516 l 315 516 l 315 451 z"},"M":{"x_min":0,"x_max":933,"ha":933,"o":"m 213 543 l 213 197 q 213 137 221 90 q 229 42 245 0 l 65 0 q 82 42 89 90 q 97 137 97 197 l 97 677 l 18 757 l 195 757 q 196 730 228 690 l 230 687 l 465 386 l 702 687 q 722 712 729 727 q 736 742 737 757 l 905 757 q 870 729 852 679 q 833 629 833 565 l 833 197 q 833 137 841 90 q 849 42 865 0 l 684 0 q 701 43 709 91 q 717 139 717 197 l 717 542 l 463 228 z"},"g":{"x_min":0,"x_max":507,"ha":507,"o":"m 261 231 q 299 231 323 260 q 346 290 346 339 q 346 395 315 434 q 284 472 241 472 q 201 472 176 443 q 152 414 152 365 q 152 308 183 269 q 215 231 261 231 z m 175 27 q 163 11 157 -3 q 151 -17 151 -29 q 151 -59 175 -74 q 199 -89 246 -89 q 305 -89 340 -71 q 374 -52 374 -21 q 374 4 355 17 q 336 29 298 29 q 289 29 248 28 q 207 27 175 27 z m 159 183 q 108 206 82 246 q 56 286 56 342 q 56 425 111 479 q 166 533 249 533 q 280 533 308 526 q 335 519 363 503 l 506 503 l 506 438 l 413 438 q 428 413 435 389 q 442 365 442 340 q 442 262 388 216 q 334 170 242 170 q 225 170 209 172 q 194 173 180 177 q 172 166 168 155 q 164 144 164 132 q 164 124 167 118 q 169 112 175 107 q 184 105 192 104 q 201 103 209 103 q 224 103 265 104 q 307 106 333 106 q 407 106 441 81 q 475 57 475 3 q 475 -44 438 -89 q 400 -133 342 -154 q 326 -160 282 -164 q 239 -167 179 -167 q 171 -167 153 -167 q 134 -166 124 -166 q 80 -150 64 -134 q 48 -117 48 -88 q 48 -86 49 -76 q 50 -66 50 -61 q 82 -42 109 -19 q 136 3 158 28 q 100 39 73 53 q 47 67 47 86 q 47 106 93 136 q 134 162 159 183 z"},"j":{"x_min":0,"x_max":245,"ha":245,"o":"m 177 92 q 177 -7 157 -63 q 138 -118 92 -167 l -2 -167 q 38 -123 56 -71 q 73 -19 73 69 l 73 394 q 73 432 66 464 q 59 497 45 525 l 205 525 q 191 497 184 464 q 177 432 177 394 z m 50 675 q 50 707 72 728 q 93 750 125 750 q 157 750 178 728 q 200 707 200 675 q 200 644 178 622 q 157 600 125 600 q 94 600 72 622 q 50 644 50 675 z"},"i":{"x_min":0,"x_max":262,"ha":262,"o":"m 79 394 q 79 432 72 464 q 65 497 51 525 l 211 525 q 197 497 190 464 q 183 432 183 394 l 183 132 q 183 93 190 61 q 197 28 211 0 l 51 0 q 65 28 72 61 q 79 94 79 132 z m 56 675 q 56 707 78 728 q 100 750 131 750 q 163 750 184 728 q 206 707 206 675 q 206 644 184 622 q 163 600 131 600 q 100 600 78 622 q 56 644 56 675 z"},"y":{"x_min":0,"x_max":488,"ha":488,"o":"m 202 82 l 63 399 q 45 440 25 473 q 5 505 -15 525 l 158 525 q 155 513 154 505 q 153 497 153 491 q 153 476 156 459 q 160 443 166 427 l 257 197 l 335 405 q 344 427 348 449 q 353 470 353 488 q 353 498 352 507 q 351 516 348 525 l 502 525 q 465 477 424 375 q 415 354 411 344 l 303 87 q 263 -9 227 -75 q 190 -142 165 -167 l 32 -167 q 86 -116 129 -53 q 171 9 202 82 z"},"@":{"x_min":0,"x_max":1000,"ha":1000,"o":"m 573 138 q 546 96 511 76 q 475 56 425 56 q 351 56 311 98 q 272 141 272 220 q 272 334 339 413 q 407 492 502 492 q 545 492 575 475 q 604 458 623 423 l 650 475 l 725 475 l 653 189 q 652 187 652 183 q 649 169 649 165 q 649 146 662 135 q 675 124 696 124 q 721 124 748 139 q 776 154 800 180 q 835 217 854 267 q 872 316 872 372 q 872 496 781 573 q 689 650 542 650 q 475 650 417 635 q 359 620 312 589 q 224 534 176 447 q 128 360 128 254 q 128 102 230 10 q 333 -81 503 -81 q 584 -81 661 -57 q 738 -33 803 12 l 836 -36 q 763 -91 680 -119 q 598 -147 507 -147 q 413 -147 335 -124 q 258 -100 198 -54 q 123 3 85 80 q 48 157 48 255 q 48 335 73 408 q 99 480 148 541 q 220 628 321 674 q 421 719 545 719 q 626 719 699 697 q 771 675 823 635 q 888 585 920 520 q 952 455 952 373 q 952 294 920 226 q 889 157 830 110 q 796 83 757 69 q 717 55 675 55 q 623 55 598 75 q 573 95 573 136 z m 602 345 q 595 386 572 409 q 549 431 512 431 q 450 431 406 368 q 362 306 362 217 q 362 169 384 143 q 406 117 447 117 q 491 117 527 150 q 562 182 575 234 z"},".":{"x_min":0,"x_max":308,"ha":308,"o":"m 72 76 q 72 109 96 134 q 120 158 154 158 q 188 158 212 134 q 236 110 236 76 q 236 41 212 17 q 188 -7 154 -7 q 120 -7 96 17 q 72 42 72 76 z"},"p":{"x_min":0,"x_max":556,"ha":556,"o":"m 183 113 q 204 100 224 93 q 243 87 263 87 q 328 87 367 137 q 407 188 407 270 q 407 348 371 394 q 335 441 275 441 q 252 441 230 432 q 207 424 183 406 z m 183 426 q 229 481 265 504 q 300 527 338 527 q 415 527 466 457 q 517 387 517 278 q 517 165 460 90 q 403 14 320 14 q 288 14 256 28 q 224 42 183 74 l 183 -35 q 183 -73 190 -106 q 197 -139 211 -167 l 51 -167 q 65 -139 72 -106 q 79 -73 79 -35 l 79 394 q 79 431 72 463 q 65 496 51 525 l 183 525 z"},"X":{"x_min":0,"x_max":647,"ha":647,"o":"m 539 142 q 561 105 592 69 q 622 33 659 0 l 435 0 q 439 11 442 21 q 444 32 444 41 q 444 60 438 79 q 432 99 420 118 l 321 280 l 242 154 q 215 111 201 74 q 187 37 187 8 l 187 0 l -13 0 q 32 42 72 91 q 112 141 147 198 l 261 384 l 122 609 q 95 654 65 691 q 36 728 5 757 l 207 757 q 206 753 206 749 q 205 744 205 737 q 205 719 217 688 q 229 657 248 624 l 327 492 l 412 636 q 429 665 437 694 q 446 723 446 749 l 446 757 l 624 757 q 583 705 555 664 q 526 624 509 594 l 389 390 z"},"*":{"x_min":0,"x_max":574,"ha":574,"o":"m 287 572 q 259 572 239 551 q 218 530 218 502 q 218 474 239 453 q 259 432 287 432 q 316 432 337 452 q 357 473 357 502 q 357 530 336 551 q 315 572 287 572 z m 288 241 l 226 399 l 61 371 l 168 499 l 62 633 l 226 604 l 287 764 l 348 606 l 514 633 l 407 503 l 514 371 l 347 397 z"},"Y":{"x_min":0,"x_max":560,"ha":560,"o":"m 392 645 q 404 666 410 688 q 417 711 417 733 q 417 739 416 746 q 416 752 414 757 l 588 757 q 562 722 543 692 q 523 663 510 640 l 341 346 l 341 197 q 341 137 349 90 q 356 42 373 0 l 193 0 q 209 42 217 90 q 225 137 225 197 l 225 346 l 52 638 q 33 671 11 701 q -11 730 -35 757 l 156 757 q 154 749 153 742 q 152 735 152 729 q 152 713 159 693 q 166 673 178 651 l 287 457 z"},"c":{"x_min":0,"x_max":444,"ha":444,"o":"m 375 3 q 358 -2 340 -4 q 323 -7 302 -7 q 182 -7 109 63 q 37 134 37 250 q 37 375 117 454 q 197 533 325 533 q 349 533 375 530 q 401 526 431 519 l 422 399 q 394 431 365 445 q 335 460 301 460 q 231 460 191 410 q 150 360 150 275 q 150 180 197 127 q 244 74 327 74 q 354 74 382 80 q 409 86 436 98 z"},"!":{"x_min":0,"x_max":343,"ha":343,"o":"m 171 203 q 142 235 129 283 q 117 332 117 425 l 117 614 q 117 651 106 688 q 96 726 76 757 l 265 757 q 246 727 236 689 q 225 652 225 614 l 225 425 q 225 333 213 284 q 200 235 171 203 z m 89 76 q 89 109 113 134 q 137 158 171 158 q 205 158 229 134 q 253 110 253 76 q 253 41 229 17 q 205 -7 171 -7 q 137 -7 113 17 q 89 42 89 76 z"},"/":{"x_min":0,"x_max":315,"ha":315,"o":"m 83 19 q 74 -7 70 -29 q 66 -52 66 -72 q 66 -81 66 -85 q 66 -89 67 -93 l -61 -93 q -43 -67 -28 -35 q -13 -4 -1 32 l 202 652 q 211 681 216 703 q 220 726 220 745 q 220 753 220 757 q 220 761 219 764 l 347 764 q 328 736 313 705 q 297 674 286 639 z"},"[":{"x_min":0,"x_max":394,"ha":394,"o":"m 144 -144 l 144 757 l 337 757 l 337 678 l 240 678 l 240 -65 l 337 -65 l 337 -144 z"},"6":{"x_min":0,"x_max":616,"ha":616,"o":"m 307 96 q 363 96 399 133 q 434 170 434 230 q 434 289 400 325 q 365 361 310 361 q 251 361 214 322 q 176 283 176 222 q 176 166 212 131 q 249 96 307 96 z m 524 757 q 491 728 457 689 q 423 650 386 598 l 283 453 q 286 453 292 454 q 322 457 335 457 q 426 457 488 393 q 549 329 549 235 q 549 188 531 146 q 514 103 481 69 q 445 32 399 12 q 353 -7 301 -7 q 200 -7 131 60 q 62 127 62 227 q 62 261 71 294 q 80 327 97 358 q 123 403 202 517 q 242 573 264 605 q 305 664 319 696 q 333 728 335 757 z"},"r":{"x_min":0,"x_max":367,"ha":367,"o":"m 183 421 q 220 487 249 510 q 278 533 319 533 q 336 533 352 530 q 369 526 384 519 l 363 396 q 349 417 327 429 q 306 441 280 441 q 253 441 229 430 q 206 419 183 397 l 183 132 q 183 93 190 61 q 197 28 211 0 l 51 0 q 65 28 72 61 q 79 94 79 132 l 79 394 q 79 431 72 463 q 65 496 51 525 l 183 525 z"},"2":{"x_min":0,"x_max":616,"ha":616,"o":"m 210 92 q 347 92 430 102 q 514 112 558 134 l 558 0 l 10 0 q 224 258 304 381 q 385 504 385 565 q 385 611 357 636 q 330 661 279 661 q 230 661 201 629 q 171 597 171 544 q 171 529 173 511 q 176 494 181 475 l 74 541 q 74 544 73 549 q 73 554 73 563 q 73 648 135 706 q 196 764 287 764 q 384 764 444 710 q 505 656 505 571 q 505 471 267 165 q 229 117 210 92 z"},"{":{"x_min":0,"x_max":500,"ha":500,"o":"m 427 721 l 427 634 q 423 634 415 634 q 407 635 404 635 q 351 635 332 615 q 313 594 313 530 l 313 412 q 313 336 292 304 q 270 272 214 259 q 270 246 291 214 q 313 182 313 106 l 313 -11 q 313 -76 332 -96 q 352 -117 405 -117 q 408 -117 416 -117 q 423 -116 427 -116 l 427 -202 l 396 -202 q 346 -202 315 -196 q 284 -190 263 -178 q 235 -162 224 -131 q 213 -101 213 -32 l 213 89 q 213 159 187 188 q 162 217 100 217 q 97 217 90 216 q 83 216 79 216 l 79 303 q 83 303 90 302 q 97 302 100 302 q 162 302 187 331 q 213 359 213 429 l 213 550 q 213 621 224 651 q 235 681 263 697 q 285 710 316 716 q 348 721 405 721 z"},"9":{"x_min":0,"x_max":616,"ha":616,"o":"m 126 0 q 158 34 187 71 q 215 109 240 150 l 340 315 q 324 311 307 308 q 291 306 275 306 q 181 306 124 364 q 66 421 66 516 q 66 623 138 693 q 210 764 318 764 q 419 764 483 702 q 546 639 546 538 q 546 441 425 248 q 415 230 409 221 q 403 212 393 195 q 318 76 318 27 q 318 18 318 12 q 319 6 320 0 z m 307 660 q 251 660 216 623 q 181 586 181 527 q 181 469 215 434 q 249 398 304 398 q 363 398 400 437 q 437 476 437 536 q 437 591 401 625 q 365 660 307 660 z"}," ":{"x_min":0,"x_max":308,"ha":308,"o":""},"I":{"x_min":0,"x_max":301,"ha":301,"o":"m 241 757 q 224 714 216 666 q 208 618 208 560 l 208 197 q 208 139 216 91 q 224 43 241 0 l 60 0 q 77 43 85 91 q 93 139 93 197 l 93 560 q 93 618 85 666 q 77 714 60 757 z"},"H":{"x_min":0,"x_max":736,"ha":736,"o":"m 528 431 l 528 560 q 528 618 520 666 q 512 714 495 757 l 676 757 q 660 715 652 668 q 644 620 644 560 l 644 197 q 644 137 652 90 q 660 42 676 0 l 495 0 q 512 43 520 91 q 528 139 528 197 l 528 336 l 208 336 l 208 197 q 208 139 216 91 q 224 43 241 0 l 60 0 q 77 43 85 91 q 93 139 93 197 l 93 560 q 93 618 85 666 q 77 714 60 757 l 241 757 q 224 714 216 666 q 208 618 208 560 l 208 431 z"},"4":{"x_min":0,"x_max":616,"ha":616,"o":"m 142 352 l 353 352 l 353 620 z m 455 162 q 455 96 464 62 q 472 29 492 0 l 316 0 q 336 30 344 64 q 353 99 353 162 l 353 261 l 34 261 l 34 372 q 55 390 78 414 q 102 438 131 475 l 257 635 q 269 649 289 680 q 309 711 337 757 l 466 757 q 460 734 458 705 q 455 676 455 632 l 455 352 q 488 352 518 355 q 547 359 574 366 l 574 246 q 546 253 517 257 q 487 261 455 261 z"},"~":{"x_min":0,"x_max":833,"ha":833,"o":"m 747 383 l 747 293 q 697 258 651 241 q 604 224 561 224 q 540 224 516 228 q 492 232 468 241 q 456 245 431 254 q 327 290 275 290 q 235 290 190 271 q 145 253 87 212 l 87 303 q 139 338 186 356 q 232 373 276 373 q 306 373 337 367 q 368 361 419 344 q 426 342 440 336 q 520 308 562 308 q 604 308 648 326 q 693 344 747 383 z"},"D":{"x_min":0,"x_max":679,"ha":679,"o":"m 60 0 q 77 43 85 91 q 93 139 93 197 l 93 560 q 93 618 85 666 q 77 714 60 757 l 149 757 q 235 757 295 748 q 354 739 403 720 q 511 677 575 585 q 638 493 638 379 q 638 271 590 185 q 542 99 455 51 q 407 24 345 12 q 284 0 190 0 z m 208 71 l 214 71 q 249 71 281 79 q 312 86 342 102 q 418 141 462 213 q 506 285 506 373 q 506 499 425 583 q 344 668 208 684 z"},"^":{"x_min":0,"x_max":1000,"ha":1000,"o":"m 447 713 l 553 713 l 795 439 l 694 439 l 500 633 l 305 439 l 204 439 z"},"0":{"x_min":0,"x_max":616,"ha":616,"o":"m 306 102 q 378 102 420 177 q 462 252 462 383 q 462 512 421 583 q 381 655 308 655 q 234 655 193 583 q 152 510 152 380 q 152 250 193 176 q 234 102 306 102 z m 305 -7 q 186 -7 111 98 q 35 204 35 373 q 35 449 49 513 q 63 576 91 627 q 125 689 183 727 q 241 764 302 764 q 428 764 504 659 q 581 554 581 379 q 581 303 565 240 q 549 177 516 125 q 475 60 421 27 q 368 -7 305 -7 z"},"F":{"x_min":0,"x_max":495,"ha":495,"o":"m 208 197 q 208 139 216 91 q 224 43 241 0 l 60 0 q 77 43 85 91 q 93 139 93 197 l 93 560 q 93 618 85 666 q 77 714 60 757 l 491 757 l 432 635 q 396 658 346 670 q 297 681 232 681 l 208 681 l 208 420 l 459 420 l 391 310 q 359 327 315 336 q 271 345 208 347 z"},"`":{"x_min":0,"x_max":500,"ha":500,"o":"m 114 757 l 222 757 l 322 587 l 258 587 z"},"k":{"x_min":0,"x_max":488,"ha":488,"o":"m 204 757 q 191 716 185 666 q 179 615 179 557 l 179 296 l 310 458 q 323 475 330 491 q 337 508 338 525 l 498 525 q 467 500 445 480 q 423 460 412 447 l 292 298 l 424 85 q 439 61 458 40 q 478 19 501 0 l 321 0 q 321 2 322 5 q 322 8 322 13 q 322 29 317 45 q 312 61 303 75 l 179 278 l 179 132 q 179 95 185 62 q 191 30 204 0 l 47 0 q 61 28 68 61 q 75 94 75 132 l 75 592 q 75 630 68 663 q 61 696 47 724 l 62 727 q 153 746 204 757 z"},"u":{"x_min":0,"x_max":546,"ha":546,"o":"m 363 106 l 363 394 q 363 433 356 465 q 350 498 336 525 l 495 525 q 481 498 475 465 q 468 433 468 394 l 468 132 q 468 92 475 60 q 481 27 495 0 l 363 0 l 363 87 q 341 68 319 46 q 297 24 276 1 q 263 -3 250 -6 q 236 -8 223 -8 q 196 -8 172 -1 q 147 6 127 19 q 98 38 86 63 q 74 88 74 146 l 74 163 l 74 394 q 74 432 67 464 q 60 497 46 525 l 206 525 q 192 497 185 464 q 178 432 178 394 l 178 166 q 178 123 202 101 q 226 80 275 80 q 297 80 319 86 q 340 93 363 106 z"},"]":{"x_min":0,"x_max":394,"ha":394,"o":"m 249 757 l 249 -144 l 56 -144 l 56 -65 l 154 -65 l 154 678 l 56 678 l 56 757 z"},"U":{"x_min":0,"x_max":762,"ha":762,"o":"m 562 84 q 501 38 445 15 q 388 -8 334 -8 q 294 -8 254 5 q 213 17 177 41 q 156 54 140 71 q 124 88 113 109 q 99 135 92 166 q 86 197 86 253 l 86 275 l 86 560 q 86 620 78 668 q 70 715 54 757 l 234 757 q 218 715 210 668 q 202 620 202 560 l 202 286 q 202 222 207 195 q 211 169 222 153 q 245 118 284 99 q 324 79 371 79 q 408 79 442 93 q 476 106 503 132 q 528 156 538 187 q 549 219 549 297 l 549 560 q 549 620 541 668 q 533 715 517 757 l 697 757 q 681 715 673 668 q 665 620 665 560 l 665 197 q 665 137 673 90 q 681 42 697 0 l 562 0 z"},"o":{"x_min":0,"x_max":574,"ha":574,"o":"m 343 73 q 386 99 412 148 q 437 198 437 257 q 437 342 390 401 q 344 459 279 459 q 224 459 187 409 q 150 359 150 281 q 150 189 202 131 q 253 73 336 73 z m 279 532 q 397 532 466 463 q 534 394 534 275 q 534 205 510 151 q 486 97 436 57 q 388 25 347 9 q 306 -7 270 -7 q 236 -7 202 5 q 167 16 137 38 q 90 71 64 126 q 39 180 39 247 q 40 370 107 451 q 174 532 279 532 z"},"N":{"x_min":0,"x_max":780,"ha":780,"o":"m 197 197 q 197 137 205 90 q 212 42 229 0 l 60 0 q 77 43 85 91 q 93 139 93 197 l 93 648 l 3 757 l 196 757 l 196 752 q 196 719 229 673 q 234 667 236 664 l 581 183 l 581 560 q 581 620 573 668 q 565 715 549 757 l 718 757 q 701 714 693 666 q 685 618 685 560 l 685 188 q 685 126 689 81 q 693 36 702 0 l 547 0 q 544 23 536 43 q 529 63 517 79 l 197 520 z"},"+":{"x_min":0,"x_max":833,"ha":833,"o":"m 375 596 l 458 596 l 458 339 l 709 339 l 709 258 l 458 258 l 458 0 l 375 0 l 375 258 l 124 258 l 124 339 l 375 339 z"},"G":{"x_min":0,"x_max":789,"ha":789,"o":"m 725 41 q 656 18 588 5 q 520 -7 457 -7 q 266 -7 153 94 q 40 195 40 367 q 40 462 78 543 q 117 624 190 682 q 241 723 312 743 q 383 764 471 764 q 520 764 571 757 q 622 750 676 737 l 675 609 q 625 641 567 657 q 510 674 447 674 q 317 674 243 597 q 169 520 169 384 q 169 252 249 171 q 329 90 459 90 q 495 90 528 95 q 562 100 594 110 l 594 211 q 594 281 583 318 q 572 354 545 382 l 736 382 q 724 364 717 328 q 710 292 710 244 l 710 152 q 710 117 714 90 q 717 63 725 41 z"},"q":{"x_min":0,"x_max":551,"ha":551,"o":"m 367 128 l 367 448 q 343 452 326 454 q 309 456 296 456 q 226 456 187 406 q 148 357 148 266 q 148 185 181 146 q 214 107 284 107 q 308 107 328 112 q 348 117 367 128 z m 471 -35 q 471 -73 478 -106 q 485 -139 499 -167 l 339 -167 q 353 -139 360 -106 q 367 -73 367 -35 l 367 111 l 291 26 q 276 19 261 16 q 246 12 231 12 q 144 12 92 74 q 40 136 40 241 q 40 374 131 453 q 223 533 375 533 q 392 533 418 531 q 445 529 493 523 q 482 490 477 460 q 471 430 471 403 z"},"d":{"x_min":0,"x_max":569,"ha":569,"o":"m 386 592 q 386 631 379 664 q 373 697 359 724 q 394 730 433 739 q 472 747 516 757 q 504 717 498 667 q 492 617 492 557 l 492 132 q 492 92 499 60 q 505 27 519 0 l 386 0 l 386 82 q 352 41 313 21 q 274 0 232 0 q 151 0 95 62 q 39 125 39 217 q 39 278 60 332 q 81 386 121 427 q 160 468 212 492 q 263 516 310 516 q 326 516 345 513 q 363 510 386 503 z m 386 97 l 386 412 q 366 431 342 440 q 317 449 288 449 q 259 449 234 439 q 209 430 187 410 q 167 377 156 335 q 146 294 146 246 q 146 167 191 122 q 237 76 315 76 q 336 76 353 81 q 371 86 386 97 z"},"1":{"x_min":0,"x_max":616,"ha":616,"o":"m 220 0 q 237 43 245 91 q 253 139 253 197 l 253 606 l 165 606 l 366 772 l 366 197 q 366 137 374 90 q 381 42 398 0 z"},"5":{"x_min":0,"x_max":616,"ha":616,"o":"m 117 180 q 137 137 180 110 q 223 84 273 84 q 333 84 371 123 q 408 162 408 224 q 408 291 363 328 q 317 365 234 365 q 208 365 183 361 q 157 357 131 350 l 131 642 q 131 677 127 705 q 124 732 116 757 l 541 757 l 500 638 q 476 655 424 663 q 372 670 266 670 l 235 670 l 235 439 q 243 440 253 440 q 263 441 282 441 q 394 441 456 386 q 518 331 518 233 q 518 125 445 59 q 372 -7 251 -7 q 190 -7 141 7 q 91 21 53 50 z"}}}
